<svg xmlns="http://www.w3.org/2000/svg" version="1.1" xmlns:xlink="http://www.w3.org/1999/xlink" xmlns:svgjs="http://svgjs.dev/svgjs" viewBox="0 0 800 800"><defs><linearGradient x1="50%" y1="0%" x2="50%" y2="100%" id="ssspill-grad"><stop stop-color="hsl(180, 69%, 40%)" stop-opacity="1" offset="45%"></stop><stop stop-color="hsl(180, 69%, 60%)" stop-opacity="1" offset="100%"></stop></linearGradient><filter id="ssspot-filter" x="-20%" y="-20%" width="140%" height="140%" filterUnits="objectBoundingBox" primitiveUnits="userSpaceOnUse" color-interpolation-filters="sRGB">
	<feTurbulence type="turbulence" baseFrequency="0.022 0.218" numOctaves="2" seed="116" stitchTiles="stitch" x="0%" y="0%" width="100%" height="100%" result="turbulence"></feTurbulence>
	<feGaussianBlur stdDeviation="0 3" x="0%" y="0%" width="100%" height="100%" in="turbulence" edgeMode="duplicate" result="blur"></feGaussianBlur>
	<feDisplacementMap in="SourceGraphic" in2="blur" scale="32" xChannelSelector="R" yChannelSelector="B" x="0%" y="0%" width="100%" height="100%" result="displacementMap"></feDisplacementMap>
</filter></defs><rect width="100%" height="100%" fill="hsl(32, 3%, 98%)"></rect><g fill="url(#ssspill-grad)" filter="url(#ssspot-filter)"><circle r="7.912169815049673" cx="520.084804134314" cy="216.7053944458014" opacity="0.6720605833963735"></circle><circle r="5.336192696935888" cx="271.5522508872925" cy="104.7753470155878" opacity="0.8493128617996771"></circle><circle r="6.589676947899989" cx="350.83787554174705" cy="713.0948977689592" opacity="0.1367628050985293"></circle><circle r="5.32602284475737" cx="383.9608209836301" cy="630.4685539091086" opacity="0.3571242404701963"></circle><circle r="8.315310811213072" cx="699.8246124936784" cy="282.36123534891715" opacity="0.6222877180689101"></circle><circle r="9.19884452175655" cx="776.3701746788896" cy="687.608743003028" opacity="0.5634604913604835"></circle><circle r="15.241796393982858" cx="322.71552138238917" cy="289.490807072064" opacity="0.36982935040237896"></circle><circle r="4.935222962600181" cx="198.28222210374204" cy="511.3461364650656" opacity="0.1402779918758077"></circle><circle r="9.72404818497033" cx="629.3887035527019" cy="504.06049071631264" opacity="0.3797208923821048"></circle><circle r="8.290120496093774" cx="327.01551983953885" cy="748.9503530880825" opacity="0.3201294640003197"></circle><circle r="9.278667885738699" cx="777.8201492280035" cy="337.83046798251723" opacity="0.35654554307421127"></circle><circle r="6.886155577462393" cx="435.43839663028723" cy="205.31830880079255" opacity="0.9636488582586628"></circle><circle r="8.796173223826994" cx="604.8862090332797" cy="747.7759404603228" opacity="0.3022131995840851"></circle><circle r="6.138822357077998" cx="664.3187571213621" cy="305.73018332459" opacity="0.6749047729463034"></circle><circle r="8.438389066298631" cx="518.1761594019217" cy="265.8487193003199" opacity="0.10058575497146127"></circle><circle r="10.156860663913516" cx="50.43353964396188" cy="125.06634409421586" opacity="0.34007819305986065"></circle><circle r="6.199170686806478" cx="685.7541661246042" cy="97.30568392224447" opacity="0.8338285059379411"></circle><circle r="5.776882409882255" cx="558.1426486770748" cy="42.84551845604544" opacity="0.22474748595373778"></circle><circle r="9.915626450236154" cx="728.3519042575259" cy="557.9118354271237" opacity="0.7930560714715905"></circle><circle r="7.727450624258545" cx="185.06803604599946" cy="609.9414554439223" opacity="0.30699863309912945"></circle><circle r="4.457701398610937" cx="525.2257055541078" cy="579.2216127927779" opacity="0.18311780627450316"></circle><circle r="7.626712707360139" cx="596.1876119644472" cy="621.5027094344638" opacity="0.163293698269305"></circle><circle r="6.946365208880811" cx="319.6546425509373" cy="581.1506304730494" opacity="0.6556648185356773"></circle><circle r="8.617511193142619" cx="737.2033761525859" cy="103.57051602763251" opacity="0.2639169473551711"></circle><circle r="12.225123377812135" cx="515.3827969653873" cy="725.1366205524988" opacity="0.5881709882743652"></circle><circle r="10.046232723633684" cx="697.4565682452446" cy="763.2969626469052" opacity="0.33737837795718717"></circle><circle r="7.389439612219352" cx="501.28430947319623" cy="397.46345524593295" opacity="0.8983136525771652"></circle><circle r="9.902687831157944" cx="486.30319497983857" cy="668.5473904805766" opacity="0.4032769546080034"></circle><circle r="5.973604318678447" cx="750.5181067782145" cy="199.41504392508782" opacity="0.24951993337687214"></circle><circle r="9.895033608694792" cx="111.92318469612047" cy="207.46282624996113" opacity="0.8000127176713755"></circle><circle r="8.997744781301442" cx="218.2520500697419" cy="160.05171158361594" opacity="0.14773642634859446"></circle><circle r="5.854411198956019" cx="584.0755153672583" cy="580.1285562909162" opacity="0.7316303754231435"></circle><circle r="5.916120281861652" cx="283.07926961626725" cy="659.3144534098028" opacity="0.4687024124252712"></circle><circle r="3.846955846435182" cx="254.83095495957605" cy="10.814509441588003" opacity="0.6591716739035364"></circle><circle r="5.723927476979867" cx="167.42078654215456" cy="485.31040323686176" opacity="0.19386393374260152"></circle><circle r="3.983902458138241" cx="686.4360568155447" cy="15.499840499403154" opacity="0.5792997260674627"></circle><circle r="8.2994200118215" cx="255.08494482964036" cy="430.2110972440917" opacity="0.1748856978858196"></circle><circle r="4.710096029742976" cx="553.1147130998992" cy="115.41803224152993" opacity="0.9857846214573923"></circle><circle r="10.62092110234391" cx="256.60557002090997" cy="206.04241772838623" opacity="0.31587984373098354"></circle><circle r="6.795017587328803" cx="396.0280864650303" cy="598.528877177129" opacity="0.3065833165644578"></circle><circle r="6.155708755793881" cx="457.92265807047346" cy="559.1396500993399" opacity="0.7177246858268833"></circle><circle r="12.860326478704586" cx="470.6888378342722" cy="234.9777695225873" opacity="0.9914963607657183"></circle><circle r="7.050212733187648" cx="662.7511321542595" cy="351.6094115583757" opacity="0.17291055312657785"></circle><circle r="7.2473662763711175" cx="711.1068241206106" cy="336.64877262768266" opacity="0.9809877068875376"></circle><circle r="8.317748554614415" cx="161.92601646994518" cy="760.9549902388912" opacity="0.569267887657374"></circle><circle r="13.021949659789854" cx="23.89891614925825" cy="584.9788592978703" opacity="0.10140291047653333"></circle><circle r="8.076335705438881" cx="56.777778306773946" cy="475.94149451366525" opacity="0.932758002422652"></circle><circle r="6.13418740782362" cx="186.79867482353862" cy="117.81799147193253" opacity="0.7030168228518745"></circle><circle r="13.811943934937029" cx="112.54545932212599" cy="491.08525226860047" opacity="0.14607948806572282"></circle><circle r="8.87778108943093" cx="163.99177180241668" cy="257.17315725834686" opacity="0.38242827840712634"></circle><circle r="9.292600779430241" cx="380.9524882248051" cy="502.2274177996765" opacity="0.8712400182005403"></circle><circle r="10.698118945214777" cx="91.11686267468053" cy="308.77925962448035" opacity="0.6578177849407078"></circle><circle r="5.806949124249586" cx="341.236437564116" cy="462.6048135580699" opacity="0.8590795101510562"></circle><circle r="4.7576859892478955" cx="418.86271499918615" cy="41.92419559548622" opacity="0.42254520070504953"></circle><circle r="10.23957334601774" cx="643.2442431901757" cy="776.8875661762324" opacity="0.8098410399619326"></circle><circle r="11.608086721028577" cx="96.39225931367955" cy="254.85975391727095" opacity="0.7967520145588042"></circle><circle r="12.991091348285588" cx="67.79291376527692" cy="725.9827246906382" opacity="0.22579829977507038"></circle><circle r="9.343382457079226" cx="727.7673979572488" cy="471.12545482111403" opacity="0.669994159637529"></circle><circle r="7.119242516990495" cx="783.3530500515208" cy="168.77435585188877" opacity="0.5140647247521072"></circle><circle r="7.550923059570673" cx="289.35440822746466" cy="137.54318593651524" opacity="0.4712147423689741"></circle><circle r="7.733800584301756" cx="123.83475410299783" cy="728.2736654407076" opacity="0.37231955403062"></circle><circle r="10.251665059753012" cx="565.4270072421023" cy="773.4686843188282" opacity="0.7806640458562704"></circle><circle r="4.726875828621154" cx="573.9134386734087" cy="153.95560237129777" opacity="0.398802000908303"></circle><circle r="7.335982407275101" cx="631.9704698886796" cy="47.527089148303894" opacity="0.9096478860352876"></circle><circle r="8.1907937603487" cx="520.1385981619034" cy="63.59455614935146" opacity="0.26329297888798103"></circle><circle r="5.427872861552253" cx="649.5162596632237" cy="16.18551420041483" opacity="0.5923633964689141"></circle><circle r="6.409908632837291" cx="159.05649721695355" cy="682.3020476154502" opacity="0.47536522611050747"></circle><circle r="4.498959520581672" cx="787.2771267757145" cy="529.1889788144149" opacity="0.8984720077854499"></circle><circle r="10.354187948371884" cx="86.07874019513002" cy="433.18537796772847" opacity="0.8316350565485088"></circle><circle r="12.528485171366535" cx="466.8505279782168" cy="361.3938822501677" opacity="0.350104723338036"></circle><circle r="7.293296245024095" cx="12.864045683657995" cy="115.20162757487729" opacity="0.36458188328555774"></circle><circle r="4.2974978686844745" cx="719.0209221815801" cy="31.28678261195628" opacity="0.42158268259265586"></circle><circle r="6.877191419645003" cx="540.6230664126335" cy="145.75616151500446" opacity="0.21734689992122747"></circle><circle r="8.826816206756575" cx="203.129832663315" cy="216.72723968118606" opacity="0.9861978079357854"></circle><circle r="7.444754640956809" cx="135.7417201796526" cy="660.5471631145117" opacity="0.23154767607845733"></circle><circle r="6.179798844403457" cx="733.975181848685" cy="252.4850656951302" opacity="0.27842352377339047"></circle><circle r="8.287191057284183" cx="674.9020419968582" cy="235.6666640466154" opacity="0.2610014205631692"></circle><circle r="5.285042352968713" cx="289.609327094468" cy="73.53534825351633" opacity="0.42848295809019055"></circle><circle r="4.326083701591282" cx="582.431191465345" cy="76.87648334825899" opacity="0.40242540297837726"></circle><circle r="6.749716964533781" cx="589.6680810075779" cy="113.3927387139076" opacity="0.6396725129547651"></circle><circle r="9.061229357314676" cx="340.61823607557807" cy="352.815975786692" opacity="0.7199143163178583"></circle><circle r="10.30070934982269" cx="570.2252912908064" cy="274.3306091816061" opacity="0.5910122449119745"></circle><circle r="7.746426028944157" cx="66.50985941240033" cy="534.7721991103928" opacity="0.7643142573672592"></circle><circle r="8.643366531148507" cx="379.771608404737" cy="450.27613890224944" opacity="0.9115557285739562"></circle><circle r="5.351814383867496" cx="614.914031734845" cy="221.74207807671306" opacity="0.7427995656572252"></circle><circle r="10.747823867807249" cx="407.2029757678384" cy="727.0743084452254" opacity="0.4864432968909659"></circle><circle r="9.340864524071058" cx="352.83987443310474" cy="606.7761104608549" opacity="0.22976367172860812"></circle><circle r="7.4944622334481945" cx="303.68217021463437" cy="227.17191517240445" opacity="0.5453687572862834"></circle><circle r="9.482610402985657" cx="420.4048497763889" cy="522.825785029051" opacity="0.5071941067714316"></circle><circle r="5.353854330304184" cx="704.1619541451403" cy="134.08319978381667" opacity="0.5582871797397845"></circle><circle r="6.242316935765359" cx="133.81525497441763" cy="598.9663856804364" opacity="0.8885051671508607"></circle><circle r="6.988736389090265" cx="783.802997962157" cy="587.8910892937328" opacity="0.24926887972903022"></circle><circle r="10.555825156499303" cx="75.0111866224604" cy="178.1773822990289" opacity="0.8918952352980227"></circle><circle r="8.30070178027976" cx="483.46498008335374" cy="105.98791173183301" opacity="0.4767867201275473"></circle><circle r="8.440296676392453" cx="459.4122292411858" cy="450.7687170000152" opacity="0.29802456446279724"></circle><circle r="6.917232620897341" cx="269.4007520903245" cy="715.3830105824976" opacity="0.6957804316280991"></circle><circle r="5.918031585801028" cx="267.67224118559085" cy="165.97762190832395" opacity="0.9997590265887668"></circle><circle r="6.448898552478969" cx="613.6371570587194" cy="155.766694004895" opacity="0.2758008418700474"></circle><circle r="10.246977337169064" cx="367.1037029873827" cy="402.1242116619207" opacity="0.9653942574712128"></circle><circle r="8.636550454104913" cx="758.1968998117557" cy="780.6761901833509" opacity="0.7358730288146078"></circle><circle r="4.411489890728488" cx="227.83277109924916" cy="785.9715471990289" opacity="0.3852325988577868"></circle><circle r="6.979374446389965" cx="776.3321818105933" cy="128.8687116084591" opacity="0.9435343515495165"></circle><circle r="4.905656788501227" cx="705.5813027246933" cy="688.0305274832186" opacity="0.46853119442018454"></circle><circle r="10.227863540412327" cx="121.43461672667588" cy="777.6106091837222" opacity="0.10189325031629066"></circle><circle r="8.62941270006241" cx="221.455387313943" cy="399.0320954994429" opacity="0.9249437103350635"></circle><circle r="11.535822159730813" cx="35.08220654087562" cy="270.44722299127625" opacity="0.33854339315840093"></circle><circle r="7.401388997722359" cx="23.265796578979973" cy="321.7633471594854" opacity="0.2776762630893369"></circle><circle r="9.070765499191015" cx="639.443280478577" cy="402.85522847197086" opacity="0.6075715134744596"></circle><circle r="10.752859279073693" cx="637.4111079200019" cy="599.5049687219278" opacity="0.767511983473382"></circle><circle r="10.73901799852268" cx="130.87608302320626" cy="362.1628864572745" opacity="0.2080250446504544"></circle><circle r="6.6698538560466325" cx="24.37692990168701" cy="436.79674773265515" opacity="0.7111850408470296"></circle><circle r="4.483174883405708" cx="235.97209570044143" cy="249.5346467595836" opacity="0.31896598820324296"></circle><circle r="7.624427523024953" cx="573.1871120062729" cy="713.3353640963635" opacity="0.273524795179059"></circle><circle r="4.336097447134794" cx="323.6865897174401" cy="15.748773386685423" opacity="0.6227064793385921"></circle><circle r="5.567914780177922" cx="635.5421699517398" cy="192.5965857976065" opacity="0.4618750591968217"></circle><circle r="8.084801681363054" cx="577.1975663446897" cy="233.60613326778324" opacity="0.3740730947082177"></circle><circle r="5.180713734455329" cx="385.3958538333731" cy="15.458455971127536" opacity="0.6407221089669516"></circle><circle r="6.654225551344808" cx="400.0472932422543" cy="222.86085050500117" opacity="0.4617050699211809"></circle><circle r="11.73600384773952" cx="169.34116269582645" cy="55.97364677312764" opacity="0.9899221520679606"></circle><circle r="12.18991540161587" cx="541.6317544011822" cy="425.99558149488394" opacity="0.5076437678810388"></circle><circle r="8.984144659733033" cx="779.3330179455859" cy="243.96987358971114" opacity="0.828905786190527"></circle><circle r="6.566237675328001" cx="768.1061408035883" cy="554.7146744374178" opacity="0.4765540377177343"></circle><circle r="10.010654151624768" cx="330.90892304144904" cy="112.30465006767318" opacity="0.5520681541377875"></circle><circle r="8.191842783696396" cx="84.69107904402583" cy="584.7467098240642" opacity="0.9450175970161749"></circle><circle r="11.974544465701397" cx="412.6665879824647" cy="382.3213217785178" opacity="0.6652177415306686"></circle><circle r="11.260390728638404" cx="160.62185523756324" cy="179.37664789640087" opacity="0.5279370890935478"></circle><circle r="7.60911649132739" cx="589.398197130811" cy="411.3263867779955" opacity="0.5831342383811532"></circle><circle r="6.709716140197756" cx="664.5712965034202" cy="55.54507674662662" opacity="0.6155182764802571"></circle><circle r="7.983529498091408" cx="194.3291354266146" cy="343.22557400256727" opacity="0.6051636943067077"></circle><circle r="5.242855929437921" cx="600.0644041629037" cy="339.1233214666954" opacity="0.48889516073923756"></circle><circle r="7.299578829171569" cx="316.87056277166215" cy="784.5047094356858" opacity="0.7617946561348513"></circle><circle r="5.060807505682907" cx="337.2151247812049" cy="527.134294324103" opacity="0.13321643259366592"></circle><circle r="5.2462491927501125" cx="562.6690420996944" cy="602.0120042303116" opacity="0.5724517462695079"></circle><circle r="10.069341324147828" cx="452.7228247201807" cy="161.69744224951987" opacity="0.3600498171418721"></circle><circle r="5.534641579496225" cx="358.8549078896885" cy="35.265777045916394" opacity="0.38730520402901436"></circle><circle r="11.1469462981795" cx="422.11792184616274" cy="272.9983427894493" opacity="0.24531572128086332"></circle><circle r="8.781649568378285" cx="365.4488154291868" cy="556.0876311021983" opacity="0.3248117751757647"></circle><circle r="8.055339313816749" cx="241.42007120175572" cy="321.4302561793128" opacity="0.18148783234131294"></circle><circle r="5.107795333748228" cx="456.07969103203" cy="511.30646373754496" opacity="0.9705048288994653"></circle><circle r="6.454869071991592" cx="654.7302705952179" cy="644.7966060261601" opacity="0.2568721538971749"></circle><circle r="7.777120091093341" cx="731.9456783415517" cy="64.05625782900842" opacity="0.46041056232494626"></circle><circle r="7.334101793290483" cx="646.5163557409971" cy="548.1586285628267" opacity="0.13065720563548985"></circle><circle r="5.536785185266193" cx="542.0120240547895" cy="87.60418867123738" opacity="0.545529059326414"></circle><circle r="4.756492350942815" cx="240.28221693485148" cy="652.8754108362555" opacity="0.4811807854586494"></circle><circle r="7.749540558962098" cx="761.5948785571454" cy="398.0979732860925" opacity="0.7096155916496978"></circle><circle r="10.011302185950598" cx="748.0768454503624" cy="303.0190129480626" opacity="0.7569917179225465"></circle><circle r="5.752404193929113" cx="554.0578146797225" cy="216.22364554844503" opacity="0.2957130980006475"></circle><circle r="8.91938079201006" cx="493.6431267323296" cy="516.2823298269803" opacity="0.7922226126737423"></circle><circle r="7.85995893498367" cx="520.4081892500216" cy="628.7506535332861" opacity="0.6948073160836709"></circle><circle r="6.29601377304443" cx="774.9813256998337" cy="68.86788730273345" opacity="0.9145762602912281"></circle><circle r="8.563627464856427" cx="55.18208083478573" cy="633.9218959063511" opacity="0.3171849431815349"></circle><circle r="7.293224315922014" cx="697.3894738234021" cy="54.52966841689286" opacity="0.2949153353356976"></circle><circle r="5.843271098551767" cx="780.3603028956855" cy="15.487338971502783" opacity="0.21590528943106396"></circle><circle r="4.637218930553693" cx="398.75823775073894" cy="686.5853732538081" opacity="0.619619126482553"></circle><circle r="5.1636512959074885" cx="532.1865391958017" cy="17.782213154039916" opacity="0.7539952781200089"></circle><circle r="7.152537139045646" cx="283.26239941528013" cy="527.8079386568318" opacity="0.9461154456274742"></circle><circle r="6.702782870238665" cx="610.914707997366" cy="371.52414156982445" opacity="0.2894737522424471"></circle><circle r="9.430004282425307" cx="103.54012406100756" cy="139.4357331599255" opacity="0.7780809200549488"></circle><circle r="8.20575729760207" cx="360.85292831214116" cy="240.5964465661491" opacity="0.7176956561956692"></circle><circle r="10.876546177880643" cx="32.00452313647704" cy="220.07982152833" opacity="0.35939254811584354"></circle><circle r="9.52652644358752" cx="306.4880887574755" cy="626.1839760715303" opacity="0.26043196904396887"></circle><circle r="6.859462516915975" cx="20.095350095093064" cy="510.26899637743236" opacity="0.5070311343749785"></circle><circle r="4.7166258189814485" cx="171.7958741314507" cy="534.622503012426" opacity="0.5099852659025885"></circle><circle r="4.765901069884062" cx="400.7977634754092" cy="655.8123236072366" opacity="0.5411968159578886"></circle><circle r="12.582228658617359" cx="431.55199729111735" cy="107.88861440206408" opacity="0.2845302468900429"></circle><circle r="5.468040198808229" cx="722.2688736142164" cy="516.9226707060507" opacity="0.3395032720622815"></circle><circle r="5.659393284222324" cx="229.76077036458662" cy="110.44632143736213" opacity="0.8855667376359574"></circle><circle r="5.772155685431904" cx="576.035889752103" cy="528.6645551049792" opacity="0.8128916066571764"></circle><circle r="5.322766593359335" cx="491.57362882208133" cy="13.481409900241207" opacity="0.7585939716543105"></circle><circle r="5.764085232320365" cx="738.1968978290794" cy="662.7612797737318" opacity="0.7405487209530237"></circle><circle r="8.471919477582578" cx="490.2770989284025" cy="147.7746033350707" opacity="0.7800792282084195"></circle><circle r="8.126178204790481" cx="70.81460009025834" cy="776.5448128781954" opacity="0.8800584565469195"></circle><circle r="5.238670414473914" cx="175.98288060949218" cy="571.567322319342" opacity="0.8788049831445442"></circle><circle r="10.342776175479404" cx="586.6635899385294" cy="473.2551847301847" opacity="0.8614959617492333"></circle><circle r="6.3046217711044195" cx="494.2642549230487" cy="186.49095280922086" opacity="0.2273876709870171"></circle><circle r="8.42606242225959" cx="309.1584283155372" cy="688.1022568632061" opacity="0.4460347888498496"></circle><circle r="6.051715973743049" cx="216.0088424764063" cy="754.2153688974608" opacity="0.24451709008843117"></circle><circle r="9.171527952809289" cx="534.1727337113423" cy="485.926376981994" opacity="0.11613531811010676"></circle><circle r="6.5048860409614795" cx="134.28119213075414" cy="23.40832256446684" opacity="0.46207535756401663"></circle><circle r="11.125986137348683" cx="396.6498788553224" cy="321.0354364160349" opacity="0.242708329356738"></circle><circle r="7.6060103312688305" cx="620.9965018104098" cy="666.4575411024449" opacity="0.8678914897144386"></circle><circle r="5.0568973170504625" cx="464.85503820194936" cy="69.2288656594841" opacity="0.2920283258757922"></circle><circle r="7.8593946352035235" cx="148.9918924073737" cy="308.0873637310665" opacity="0.6024073907311566"></circle><circle r="4.576180655302161" cx="432.0889944743817" cy="635.8745131235576" opacity="0.6977903717897657"></circle><circle r="8.07692523970245" cx="324.8377179326604" cy="173.781890153283" opacity="0.8982474454147656"></circle><circle r="7.011658544040413" cx="260.40030714214464" cy="606.1935447267371" opacity="0.6800794912450132"></circle><circle r="5.986659752636374" cx="192.39542375294593" cy="694.263672118943" opacity="0.6843532643918088"></circle><circle r="7.9733554939208435" cx="333.4618986289285" cy="63.16368737460521" opacity="0.5088042693062225"></circle><circle r="5.589113456076099" cx="279.8960295177222" cy="568.3233281340327" opacity="0.9231649624329067"></circle><circle r="4.18669076503098" cx="586.8093360400458" cy="667.2408108665011" opacity="0.7731951127499384"></circle><circle r="10.331477097613845" cx="388.1822262046039" cy="72.73756050177293" opacity="0.9410192046590117"></circle><circle r="9.737676346049906" cx="20.917029152084908" cy="730.1929888947201" opacity="0.64562351134387"></circle><circle r="7.848128068012107" cx="487.85446650389906" cy="609.0551060285684" opacity="0.3357822427052136"></circle><circle r="7.264723807365422" cx="502.5591671241615" cy="778.2840568658947" opacity="0.5157087915015349"></circle><circle r="5.608708875109192" cx="186.93373044558132" cy="644.6148432594545" opacity="0.49504435177992256"></circle><circle r="11.766318604655424" cx="168.81953923131135" cy="392.0457386060475" opacity="0.611446677966881"></circle><circle r="7.854765852134857" cx="605.8863153303862" cy="556.4895203545374" opacity="0.5825027812061442"></circle><circle r="5.980253647410683" cx="686.3717192424677" cy="561.5540745636204" opacity="0.18702232998101842"></circle><circle r="6.89945931878342" cx="75.42606380961269" cy="26.097433648509266" opacity="0.500180497335957"></circle><circle r="7.258110247178257" cx="182.62537967258288" cy="785.4347232684477" opacity="0.5260526476414868"></circle><circle r="7.385414893729379" cx="773.0703799635014" cy="475.00890517873535" opacity="0.6196887428316306"></circle><circle r="7.003289874490698" cx="351.31034324378703" cy="660.0916719399834" opacity="0.10200295880125929"></circle><circle r="8.676125930822286" cx="367.0997620716789" cy="169.52989375738818" opacity="0.84641631206548"></circle><circle r="9.202398690673789" cx="138.17350018249854" cy="433.7527549450451" opacity="0.6080202755414628"></circle><circle r="8.216500409531779" cx="774.261366317963" cy="437.25709379054126" opacity="0.10461065653869735"></circle><circle r="8.760479862747037" cx="378.91494978932997" cy="117.34765626287577" opacity="0.8415094313663315"></circle><circle r="8.21215946976059" cx="421.1237196011992" cy="445.59257760281884" opacity="0.25088399674465084"></circle><circle r="7.332112036166125" cx="175.9438012402441" cy="726.852983752195" opacity="0.6689606967231"></circle><circle r="6.341399211536711" cx="629.2512447266632" cy="125.72934856224661" opacity="0.22464141394501314"></circle><circle r="8.75049221566961" cx="695.5461077271567" cy="649.2090357742576" opacity="0.5597029419808704"></circle><circle r="8.52188197500269" cx="622.0111422407701" cy="259.16666792765625" opacity="0.39059626510729684"></circle><circle r="10.718336059574256" cx="544.8515579656735" cy="332.19532270196447" opacity="0.51490689429181"></circle><circle r="6.750245159760661" cx="777.212426444944" cy="637.2859678292916" opacity="0.7886170006229313"></circle><circle r="9.535351820556011" cx="28.57676533003194" cy="383.79523708937" opacity="0.36950217409817343"></circle><circle r="8.053830342497406" cx="90.42101828805238" cy="385.0067706870628" opacity="0.84177568668567"></circle><circle r="5.625082322964724" cx="743.8796875527954" cy="600.6401684013701" opacity="0.8324351360740798"></circle><circle r="7.3795932846720405" cx="408.7156381656188" cy="164.04013893538743" opacity="0.26394402712781284"></circle><circle r="10.687016334983682" cx="239.64392321329564" cy="530.876070535424" opacity="0.9711155603335678"></circle><circle r="9.88307885188075" cx="23.30868436139162" cy="29.488606293608353" opacity="0.7856232707487827"></circle><circle r="6.005336696595179" cx="580.6074178862734" cy="17.119246649797134" opacity="0.1006579520725279"></circle><circle r="11.456448795942048" cx="28.18722908579304" cy="672.940836850886" opacity="0.4439468854481228"></circle><circle r="8.361081349286303" cx="243.3999652241055" cy="282.58084713601284" opacity="0.9810016413095864"></circle><circle r="7.464544161024515" cx="634.4117844030695" cy="715.4560465778459" opacity="0.30391579847603767"></circle><circle r="3.636367288893697" cx="309.44292509841125" cy="525.4988124480356" opacity="0.777940786037127"></circle><circle r="9.558133740559132" cx="677.5687098319073" cy="396.7599548829087" opacity="0.3876707312876262"></circle><circle r="7.3701712871836085" cx="457.1013856324519" cy="752.5614976166297" opacity="0.2104613242584287"></circle><circle r="6.037204736132908" cx="492.8724000233581" cy="469.84109694994567" opacity="0.5353042052204873"></circle><circle r="4.124943762529262" cx="241.87149701332132" cy="630.6070807215488" opacity="0.4064430745342785"></circle><circle r="4.7000956278058" cx="493.63866664551784" cy="562.6112902895254" opacity="0.8613827386280435"></circle><circle r="8.391107035793425" cx="446.1688136656355" cy="19.00218649022062" opacity="0.6771444139197005"></circle><circle r="4.204996036911181" cx="736.6437402014936" cy="13.210250083169171" opacity="0.5664489421467892"></circle><circle r="5.264379614967885" cx="330.5073338547623" cy="419.34266462608906" opacity="0.806079482554421"></circle><circle r="7.175524345996114" cx="448.53221418182" cy="605.2118662252274" opacity="0.6432510230845441"></circle><circle r="6.519940642432649" cx="393.1887273343613" cy="776.0622168648778" opacity="0.30891298849293547"></circle><circle r="6.786119170808632" cx="24.993375273700952" cy="170.0656522371383" opacity="0.49245092734347096"></circle><circle r="3.63933295492753" cx="553.1047999424834" cy="568.3950148846279" opacity="0.5641330754695205"></circle><circle r="6.879119024557275" cx="316.7747822313734" cy="486.68157380520665" opacity="0.31687542698125903"></circle><circle r="5.15851889818021" cx="543.9527488287982" cy="658.8145856278702" opacity="0.7999360907556503"></circle><circle r="8.438037227288785" cx="64.05915232128547" cy="346.87948289011786" opacity="0.26998815341702864"></circle><circle r="5.89005936139229" cx="603.8855747361094" cy="56.24218261025115" opacity="0.8021655636693118"></circle><circle r="5.8876955155268185" cx="756.3001063247167" cy="515.1528934760216" opacity="0.8039485952255602"></circle><circle r="6.796784482159652" cx="289.9969314065567" cy="455.56593696065767" opacity="0.35060819740635607"></circle><circle r="6.71740686751156" cx="583.9670905480818" cy="188.05222187128268" opacity="0.45502010472665655"></circle><circle r="13.887921591045782" cx="277.9894708594071" cy="354.10404431021675" opacity="0.7409300973932011"></circle><circle r="11.191477729963317" cx="98.51656834882908" cy="79.62138148552911" opacity="0.31973834008854585"></circle><circle r="9.233048461265659" cx="185.64605399401987" cy="446.43979684287183" opacity="0.5344012103047105"></circle><circle r="8.026511149335978" cx="267.932407941422" cy="766.6858849154531" opacity="0.8226206916267502"></circle><circle r="4.565521040075694" cx="516.9135615217966" cy="123.11298423474548" opacity="0.7383507521341042"></circle><circle r="11.873205914902762" cx="737.5368808265275" cy="725.330861050032" opacity="0.23252776692568292"></circle><circle r="9.172215536622478" cx="620.6461478312029" cy="298.62254817076644" opacity="0.6206952200514417"></circle><circle r="5.460903026446867" cx="37.12547098827715" cy="76.01599943397503" opacity="0.3566543239017581"></circle><circle r="7.098311679682634" cx="639.0046064711889" cy="93.12106466611917" opacity="0.5353148149664129"></circle><circle r="6.327466576770451" cx="100.85169863839383" cy="686.6429094760914" opacity="0.5304857037916808"></circle><circle r="8.222822131526808" cx="684.2263349759178" cy="499.13548297418686" opacity="0.14373425889588326"></circle><circle r="5.918744223472093" cx="770.1217167649367" cy="41.02976237849437" opacity="0.44962520803911754"></circle><circle r="7.456200337938655" cx="706.2344474458355" cy="433.95726419642324" opacity="0.91756675612763"></circle><circle r="8.256188339139433" cx="225.50979726483254" cy="69.24544010677937" opacity="0.7655112164370618"></circle><circle r="4.5509018384712405" cx="614.3432422466688" cy="15.662678025283936" opacity="0.8608483108170304"></circle><circle r="7.694811238419941" cx="447.3215745723666" cy="685.7756986384418" opacity="0.8081818432020029"></circle><circle r="10.03432844985662" cx="228.40104561510984" cy="470.84879532767604" opacity="0.3104663094075666"></circle><circle r="5.6371103566585905" cx="413.5405554186306" cy="568.2752847166331" opacity="0.6168800100277472"></circle><circle r="5.6804539834502075" cx="700.5654645700256" cy="610.7473593458434" opacity="0.45022511803390064"></circle><circle r="7.481176679007666" cx="226.28751577305923" cy="718.7629542980775" opacity="0.47276944354692263"></circle><circle r="7.251114496495545" cx="538.9546850587906" cy="686.7195852023605" opacity="0.8284865712731627"></circle><circle r="6.04593618053687" cx="145.4993507563498" cy="632.4969742158498" opacity="0.741541354961985"></circle><circle r="8.30555176555383" cx="782.16654130843" cy="740.7090957280868" opacity="0.8665431641300044"></circle><circle r="7.6618883862843195" cx="673.5287987598208" cy="705.0058288707143" opacity="0.7734747257312579"></circle><circle r="6.384375430382042" cx="253.27023344034225" cy="41.85231532532097" opacity="0.4929616855288891"></circle><circle r="4.906236056933796" cx="216.00110058168445" cy="666.2202123442097" opacity="0.7036998232671252"></circle><circle r="6.687404188758899" cx="293.6188449948432" cy="403.90236534079526" opacity="0.2950090872136054"></circle><circle r="6.190838759514002" cx="290.80718129902186" cy="30.64964145799721" opacity="0.5326727119639297"></circle><circle r="5.891890799921092" cx="719.3287503981868" cy="377.56457607782176" opacity="0.2200858116424656"></circle><circle r="8.703291964794492" cx="22.365637243032587" cy="778.246226858134" opacity="0.4622150294709261"></circle><circle r="7.840223801756823" cx="476.3514984811368" cy="305.8193074657582" opacity="0.4297282924885123"></circle><circle r="8.872042040061173" cx="224.67623958187306" cy="579.5320792615566" opacity="0.7006727455060706"></circle><circle r="9.88555878276825" cx="533.6799901933175" cy="531.656413531188" opacity="0.389285638346882"></circle><circle r="7.489707521052893" cx="269.067319557444" cy="491.9375596815936" opacity="0.4314076294991419"></circle><circle r="7.524329501581767" cx="739.5382420928173" cy="154.7823828448201" opacity="0.7612933188700931"></circle><circle r="8.178940078795861" cx="661.8908364743586" cy="152.67996923000018" opacity="0.9510570953472333"></circle><circle r="9.829853704910635" cx="124.44756206246058" cy="546.4797848814891" opacity="0.5790092704515528"></circle><circle r="10.109127259725234" cx="100.99760198641776" cy="638.0069124186323" opacity="0.20424451525591203"></circle><circle r="9.671133211413173" cx="145.50645915184245" cy="108.38299271152397" opacity="0.19337407895730413"></circle><circle r="9.416717309060601" cx="651.1798389079042" cy="453.41484713240453" opacity="0.48600069360098974"></circle><circle r="5.962466143115288" cx="782.1147649240683" cy="97.6189811360218" opacity="0.24397735507338406"></circle><circle r="6.0985116032833195" cx="696.5626001546191" cy="186.96340918734754" opacity="0.9119969652509449"></circle><circle r="6.042729096026616" cx="252.42217183350772" cy="678.0682333901556" opacity="0.45148724286769626"></circle><circle r="10.73852244533312" cx="205.15843138358989" cy="21.620828100193272" opacity="0.9225384667544964"></circle><circle r="4.951553246810548" cx="559.2636952941596" cy="632.4375826269949" opacity="0.8928551933199342"></circle><circle r="4.768685756242005" cx="537.873004571037" cy="178.28034764905536" opacity="0.9407216776359999"></circle><circle r="2.9218570644509483" cx="788.3622607630315" cy="496.145364955757" opacity="0.788074423831217"></circle><circle r="6.528362765329401" cx="486.5776561854269" cy="41.401103235679464" opacity="0.8421221344389305"></circle></g></svg>